Coordinates
version=1
nRows=5
nColumns=42
inDegrees=yes

Units are S.I. units (second, meters, Newtons, ...)
If the header above contains a line with 'inDegrees', this indicates whether rotational values are in degrees (yes) or radians (no).

endheader
time	pelvis_tilt	pelvis_list	pelvis_rotation	pelvis_tx	pelvis_ty	pelvis_tz	hip_flexion_r	hip_adduction_r	hip_rotation_r	knee_angle_r	knee_adduction_r	knee_angle_r_beta	ankle_angle_r	subtalar_angle_r	mtp_angle_r	hip_flexion_l	hip_adduction_l	hip_rotation_l	knee_angle_l	knee_adduction_l	knee_angle_l_beta	ankle_angle_l	subtalar_angle_l	mtp_angle_l	lumbar_extension	lumbar_bending	lumbar_rotation	arm_flex_r	arm_add_r	arm_rot_r	elbow_flex_r	pro_sup_r	wrist_flex_r	wrist_dev_r	arm_flex_l	arm_add_l	arm_rot_l	elbow_flex_l	pro_sup_l	wrist_flex_l	wrist_dev_l
      1.98000000	     12.76231342	      0.51681368	      8.36624170	      0.29374279	      0.87997853	      0.15601754	     10.28275824	      0.29661196	     -5.93212392	     49.73796093	     -0.02548636	      0.86809118	     17.15279587	    -13.77795280	     -7.51175242	     -1.53386318	      5.32945007	     -3.38660355	     27.20859947	     -6.04990425	      0.47487965	     24.32157424	      3.04173519	     -7.51175242	    -41.54369736	      4.52867656	     -6.19037942	     13.94838609	     -5.50100143	     -2.47966309	     33.81356129	     90.00000001	      0.00000000	      0.00000000	     23.94968061	    -10.59428433	     -4.13321129	     30.57557012	     90.00000001	      0.00000000	      0.00000000
      1.99000000	     12.88721851	      0.38337625	      8.56399087	      0.30195243	      0.88023348	      0.15588726	     10.33346313	      0.49276652	     -5.32528707	     46.12649361	      0.61252083	      0.80505919	     16.88122636	    -13.70235990	     -7.51136590	     -2.33299498	      4.89197595	     -3.58468900	     27.10390418	     -5.88632135	      0.47305237	     25.04743260	      3.75375094	     -7.51136590	    -41.72360372	      4.80067631	     -6.18489923	     13.69613469	     -5.34298171	     -3.30515371	     33.06559341	     90.00000001	      0.00000000	      0.00000000	     24.49110906	    -10.83141976	     -2.75058890	     31.05646151	     90.00000001	      0.00000000	      0.00000000
      2.00000000	     12.83746863	      0.35646566	      8.57067256	      0.31014830	      0.87998721	      0.15603176	     10.63392339	      0.63878841	     -4.65176495	     42.58864432	      0.92717831	      0.74331207	     16.16906170	    -14.13139072	     -7.51081886	     -2.98740216	      4.69450626	     -4.06451734	     26.86596126	     -5.98341659	      0.46889948	     25.63290834	      4.82431834	     -7.51081886	    -41.75658760	      4.85458860	     -6.08670005	     13.27818484	     -5.22873690	     -4.27592217	     32.70456401	     90.00000001	      0.00000000	      0.00000000	     24.92572817	    -11.09109142	     -1.39486794	     31.75916601	     90.00000001	      0.00000000	      0.00000000
      2.01000000	     12.61146665	      0.34190954	      8.63154432	      0.31821238	      0.87916704	      0.15609063	     11.09875928	      0.63969745	     -4.05192800	     39.03345549	      1.34329031	      0.68126232	     15.59512953	    -14.63753745	     -7.50968423	     -3.21025990	      4.52079793	     -4.89609515	     27.03672942	     -6.22370241	      0.47187995	     26.48019375	      6.09528264	     -7.50968423	    -41.59333313	      4.90936189	     -6.07830748	     12.90413618	     -5.12474528	     -5.04749517	     32.25709390	     90.00000001	      0.00000000	      0.00000000	     25.39101034	    -11.28118232	     -0.39580280	     32.30476396	     90.00000001	      0.00000000	      0.00000000
      2.02000000	     12.04400314	      0.59841183	      8.67295433	      0.32596422	      0.87751591	      0.15590785	     12.16714176	      0.17775578	     -4.26822271	     36.02392286	      1.26295339	      0.62873606	     15.60180304	    -13.91288736	     -7.50949122	     -3.12723968	      4.98154816	     -5.03816150	     27.14223395	     -6.62876844	      0.47372135	     26.94681546	      6.16046392	     -7.50949122	    -41.11135600	      4.67443588	     -6.28112470	     12.44473120	     -5.11686727	     -5.21044157	     31.96674364	     90.00000001	      0.00000000	      0.00000000	     25.88935307	    -11.37198629	     -0.09695827	     32.70734343	     90.00000001	      0.00000000	      0.00000000
